<?xml version="1.0" encoding="UTF-8" standalone="no"?>
<!DOCTYPE svg PUBLIC "-//W3C//DTD SVG 1.1//EN"
 "http://www.w3.org/Graphics/SVG/1.1/DTD/svg11.dtd">
<!-- Generated by graphviz version 2.40.1 (20161225.0304)
 -->
<!-- Title: snakemake_dag Pages: 1 -->
<svg width="97pt" height="548pt"
 viewBox="0.00 0.00 97.00 548.00" xmlns="http://www.w3.org/2000/svg" xmlns:xlink="http://www.w3.org/1999/xlink">
<g id="graph0" class="graph" transform="scale(1 1) rotate(0) translate(4 544)">
<title>snakemake_dag</title>
<polygon fill="#ffffff" stroke="transparent" points="-4,4 -4,-544 93,-544 93,4 -4,4"/>
<!-- 0 -->
<g id="node1" class="node">
<title>0</title>
<path fill="none" stroke="#d85656" stroke-width="2" stroke-dasharray="5,2" d="M59.5,-36C59.5,-36 29.5,-36 29.5,-36 23.5,-36 17.5,-30 17.5,-24 17.5,-24 17.5,-12 17.5,-12 17.5,-6 23.5,0 29.5,0 29.5,0 59.5,0 59.5,0 65.5,0 71.5,-6 71.5,-12 71.5,-12 71.5,-24 71.5,-24 71.5,-30 65.5,-36 59.5,-36"/>
<text text-anchor="middle" x="44.5" y="-15.5" font-family="sans" font-size="10.00" fill="#000000">minimap</text>
</g>
<!-- 1 -->
<g id="node2" class="node">
<title>1</title>
<path fill="none" stroke="#d88d56" stroke-width="2" stroke-dasharray="5,2" d="M64.5,-108C64.5,-108 24.5,-108 24.5,-108 18.5,-108 12.5,-102 12.5,-96 12.5,-96 12.5,-84 12.5,-84 12.5,-78 18.5,-72 24.5,-72 24.5,-72 64.5,-72 64.5,-72 70.5,-72 76.5,-78 76.5,-84 76.5,-84 76.5,-96 76.5,-96 76.5,-102 70.5,-108 64.5,-108"/>
<text text-anchor="middle" x="44.5" y="-87.5" font-family="sans" font-size="10.00" fill="#000000">consensus</text>
</g>
<!-- 1&#45;&gt;0 -->
<g id="edge1" class="edge">
<title>1&#45;&gt;0</title>
<path fill="none" stroke="#c0c0c0" stroke-width="2" d="M44.5,-71.8314C44.5,-64.131 44.5,-54.9743 44.5,-46.4166"/>
<polygon fill="#c0c0c0" stroke="#c0c0c0" stroke-width="2" points="48.0001,-46.4132 44.5,-36.4133 41.0001,-46.4133 48.0001,-46.4132"/>
</g>
<!-- 2 -->
<g id="node3" class="node">
<title>2</title>
<path fill="none" stroke="#56d873" stroke-width="2" stroke-dasharray="5,2" d="M77,-180C77,-180 12,-180 12,-180 6,-180 0,-174 0,-168 0,-168 0,-156 0,-156 0,-150 6,-144 12,-144 12,-144 77,-144 77,-144 83,-144 89,-150 89,-156 89,-156 89,-168 89,-168 89,-174 83,-180 77,-180"/>
<text text-anchor="middle" x="44.5" y="-159.5" font-family="sans" font-size="10.00" fill="#000000">normalize_indels</text>
</g>
<!-- 2&#45;&gt;1 -->
<g id="edge2" class="edge">
<title>2&#45;&gt;1</title>
<path fill="none" stroke="#c0c0c0" stroke-width="2" d="M44.5,-143.8314C44.5,-136.131 44.5,-126.9743 44.5,-118.4166"/>
<polygon fill="#c0c0c0" stroke="#c0c0c0" stroke-width="2" points="48.0001,-118.4132 44.5,-108.4133 41.0001,-118.4133 48.0001,-118.4132"/>
</g>
<!-- 3 -->
<g id="node4" class="node">
<title>3</title>
<path fill="none" stroke="#56d8a9" stroke-width="2" stroke-dasharray="5,2" d="M59.5,-252C59.5,-252 29.5,-252 29.5,-252 23.5,-252 17.5,-246 17.5,-240 17.5,-240 17.5,-228 17.5,-228 17.5,-222 23.5,-216 29.5,-216 29.5,-216 59.5,-216 59.5,-216 65.5,-216 71.5,-222 71.5,-228 71.5,-228 71.5,-240 71.5,-240 71.5,-246 65.5,-252 59.5,-252"/>
<text text-anchor="middle" x="44.5" y="-231.5" font-family="sans" font-size="10.00" fill="#000000">snp_call</text>
</g>
<!-- 3&#45;&gt;2 -->
<g id="edge3" class="edge">
<title>3&#45;&gt;2</title>
<path fill="none" stroke="#c0c0c0" stroke-width="2" d="M44.5,-215.8314C44.5,-208.131 44.5,-198.9743 44.5,-190.4166"/>
<polygon fill="#c0c0c0" stroke="#c0c0c0" stroke-width="2" points="48.0001,-190.4132 44.5,-180.4133 41.0001,-190.4133 48.0001,-190.4132"/>
</g>
<!-- 4 -->
<g id="node5" class="node">
<title>4</title>
<path fill="none" stroke="#afd856" stroke-width="2" stroke-dasharray="5,2" d="M59.5,-324C59.5,-324 29.5,-324 29.5,-324 23.5,-324 17.5,-318 17.5,-312 17.5,-312 17.5,-300 17.5,-300 17.5,-294 23.5,-288 29.5,-288 29.5,-288 59.5,-288 59.5,-288 65.5,-288 71.5,-294 71.5,-300 71.5,-300 71.5,-312 71.5,-312 71.5,-318 65.5,-324 59.5,-324"/>
<text text-anchor="middle" x="44.5" y="-303.5" font-family="sans" font-size="10.00" fill="#000000">sort</text>
</g>
<!-- 4&#45;&gt;3 -->
<g id="edge4" class="edge">
<title>4&#45;&gt;3</title>
<path fill="none" stroke="#c0c0c0" stroke-width="2" d="M44.5,-287.8314C44.5,-280.131 44.5,-270.9743 44.5,-262.4166"/>
<polygon fill="#c0c0c0" stroke="#c0c0c0" stroke-width="2" points="48.0001,-262.4132 44.5,-252.4133 41.0001,-262.4133 48.0001,-262.4132"/>
</g>
<!-- 5 -->
<g id="node6" class="node">
<title>5</title>
<path fill="none" stroke="#70d856" stroke-width="2" stroke-dasharray="5,2" d="M61,-396C61,-396 28,-396 28,-396 22,-396 16,-390 16,-384 16,-384 16,-372 16,-372 16,-366 22,-360 28,-360 28,-360 61,-360 61,-360 67,-360 73,-366 73,-372 73,-372 73,-384 73,-384 73,-390 67,-396 61,-396"/>
<text text-anchor="middle" x="44.5" y="-375.5" font-family="sans" font-size="10.00" fill="#000000">maf2bam</text>
</g>
<!-- 5&#45;&gt;4 -->
<g id="edge5" class="edge">
<title>5&#45;&gt;4</title>
<path fill="none" stroke="#c0c0c0" stroke-width="2" d="M44.5,-359.8314C44.5,-352.131 44.5,-342.9743 44.5,-334.4166"/>
<polygon fill="#c0c0c0" stroke="#c0c0c0" stroke-width="2" points="48.0001,-334.4132 44.5,-324.4133 41.0001,-334.4133 48.0001,-334.4132"/>
</g>
<!-- 6 -->
<g id="node7" class="node">
<title>6</title>
<path fill="none" stroke="#d8cb56" stroke-width="2" stroke-dasharray="5,2" d="M59.5,-468C59.5,-468 29.5,-468 29.5,-468 23.5,-468 17.5,-462 17.5,-456 17.5,-456 17.5,-444 17.5,-444 17.5,-438 23.5,-432 29.5,-432 29.5,-432 59.5,-432 59.5,-432 65.5,-432 71.5,-438 71.5,-444 71.5,-444 71.5,-456 71.5,-456 71.5,-462 65.5,-468 59.5,-468"/>
<text text-anchor="middle" x="44.5" y="-447.5" font-family="sans" font-size="10.00" fill="#000000">last_maf</text>
</g>
<!-- 6&#45;&gt;5 -->
<g id="edge6" class="edge">
<title>6&#45;&gt;5</title>
<path fill="none" stroke="#c0c0c0" stroke-width="2" d="M44.5,-431.8314C44.5,-424.131 44.5,-414.9743 44.5,-406.4166"/>
<polygon fill="#c0c0c0" stroke="#c0c0c0" stroke-width="2" points="48.0001,-406.4132 44.5,-396.4133 41.0001,-406.4133 48.0001,-406.4132"/>
</g>
<!-- 7 -->
<g id="node8" class="node">
<title>7</title>
<path fill="none" stroke="#56c9d8" stroke-width="2" stroke-dasharray="5,2" d="M66.5,-540C66.5,-540 22.5,-540 22.5,-540 16.5,-540 10.5,-534 10.5,-528 10.5,-528 10.5,-516 10.5,-516 10.5,-510 16.5,-504 22.5,-504 22.5,-504 66.5,-504 66.5,-504 72.5,-504 78.5,-510 78.5,-516 78.5,-516 78.5,-528 78.5,-528 78.5,-534 72.5,-540 66.5,-540"/>
<text text-anchor="middle" x="44.5" y="-519.5" font-family="sans" font-size="10.00" fill="#000000">build_lastdb</text>
</g>
<!-- 7&#45;&gt;6 -->
<g id="edge7" class="edge">
<title>7&#45;&gt;6</title>
<path fill="none" stroke="#c0c0c0" stroke-width="2" d="M44.5,-503.8314C44.5,-496.131 44.5,-486.9743 44.5,-478.4166"/>
<polygon fill="#c0c0c0" stroke="#c0c0c0" stroke-width="2" points="48.0001,-478.4132 44.5,-468.4133 41.0001,-478.4133 48.0001,-478.4132"/>
</g>
</g>
</svg>
